<svg xmlns="http://www.w3.org/2000/svg" viewBox="0 0 1960.02 1929.56"><defs><style>.cls-1{fill:#f70b91;}.cls-2{fill:#fe85ca;}.cls-3{fill:#ffe05a;}</style></defs><g id="Calque_2" data-name="Calque 2"><g id="Calque_1-2" data-name="Calque 1"><path class="cls-1" d="M1270.14,440c5.13-3.84,7.77-8.53,10.95-12.65,25.67-33.25,57.32-59.61,92.55-82.16a456.31,456.31,0,0,1,113.11-52.06c33.81-10.35,68.43-17.12,104-18.44,42-1.56,83,5.12,123.25,16.34a428.88,428.88,0,0,1,89.58,36.44c30.72,16.67,54.88,40.79,76.39,67.9,16.37,20.64,32,41.78,44.3,65.17,15.56,29.64,25,61.23,29.83,94.31,2.31,15.82,5.06,31.55,5.79,47.56.93,20.64-2.65,40.78-5.74,61-5,33.09-14.42,64.83-30.4,94.16-23.21,42.61-51.17,81.94-86.84,115.21-38.9,36.28-82.05,66.68-128.46,92.76-18.56,10.43-38.3,16.88-58.24,23.35-2.42.78-6.61,1-6.52,3.46.09,2.68,4.28,2.16,6.7,2.88,50.67,15.17,98.41,36.37,140.42,69,27.4,21.31,50.26,47.07,70.54,75.12,28.42,39.3,47.34,83.27,61.78,129.2,8.92,28.36,11.48,57.86,10.5,87.44-1.56,46.93-11.74,91.83-31.61,134.72-18.68,40.33-42.62,77.24-69.19,112.55-13.79,18.33-31.65,32.75-49.62,46.88-38.86,30.54-83,49.48-131,60.19-12.21,2.73-24.63,3.89-37.1,4.83-37.16,2.78-73.86-1.61-110.39-7.3-19.91-3.1-39.08-9.59-58.09-16.41-22-7.89-43.66-16.32-64.37-27.22-26.1-13.73-49.72-30.81-71.77-50.35-38.64-34.23-72-73.45-106-112-10.27-11.65-17.94-25.22-26.31-38.25a34,34,0,0,0-2.26-3.28,2.3,2.3,0,0,0-1.62-.91c-.95.13-1.18,1.1-1.13,2,.17,2.66.46,5.31.61,8,2,35.14-1.62,69.86-8.08,104.35-5.85,31.23-12.82,62.19-23.53,92.18-8.42,23.57-19.36,46-31.76,67.69-14.48,25.38-29.86,50.22-50.92,70.73-22.77,22.18-45.3,44.88-72.32,62-43.44,27.52-90.2,47.06-141.17,55.89-54.34,9.42-108.7,10.19-162.9-.17-37.11-7.1-71.7-21.52-104.78-39.57a311.28,311.28,0,0,1-66.71-48.86c-25.07-24.06-44.67-52.11-61.84-82.34-20.64-36.32-30-75.63-35.11-116.34-4.09-32.44-2.06-64.8,2.19-97.13,3.68-28,9-55.59,18.61-82.15,8-22.09,18.9-43,28.55-64.38,11.55-25.59,26.28-49,45.67-69.32a88.84,88.84,0,0,0,6.88-8.56c1-1.38,3.47-2.68,2.3-4.52s-3.36-.4-5.09,0c-8.64,1.8-17.24,3.78-25.91,5.42a420.42,420.42,0,0,1-60.49,6.83c-10.47.45-20.92,1.52-31.39,2.07-32.9,1.7-65-3-96.93-10.84-38.84-9.5-76.32-22.3-111.93-40.64-22-11.31-41.05-26.41-59.94-42.08C98.7,1206,76.9,1177.06,58.53,1145.24,50.87,1132,42,1119.45,34.8,1105.88c-12.77-24.17-18.72-50.48-24.1-77C7.06,1011,3.47,993,1.62,974.76A300.36,300.36,0,0,1,9.75,867.29c9.58-36.57,27.9-68.39,51.37-97.34a351.27,351.27,0,0,1,77-70.67c38.55-25.91,79.84-46.1,124.78-58.43,29.58-8.12,59.42-15.23,90-17.68,38.82-3.11,77.54-2.59,115.76,6.56,18.28,4.38,37.08,6.48,54.94,12.7,6.29,2.19,12.63,4.23,19,6.2,1.43.45,3.32,2,4.47.15.82-1.34-.79-2.72-1.66-3.89-7.48-10-14.4-20.39-21.05-31a385.79,385.79,0,0,1-53.28-138.55c-4.12-22.94-3.12-46.18-2.29-69.31a442.85,442.85,0,0,1,10.31-82.17,542.53,542.53,0,0,1,26.27-84.31c7.2-17.74,13.2-36,22.4-52.84C541,162.61,557.39,141,576,120.74a494.51,494.51,0,0,1,72.27-65.06c15-10.92,31.93-17.91,49-24.51,31.14-12,63-21.56,96.06-26.81,35.26-5.61,70.54-5.58,106-1.23,24,3,47.54,8.33,71.11,13.43,28.93,6.26,56.14,17.68,83.06,29.82,32.66,14.73,61.66,34.72,88,59,18.4,17,36.8,34,51.69,54.08,18.52,25,36.63,50.6,48.37,79.68,15.92,39.41,27.47,79.93,27.8,123,.14,18.47,2.75,36.89,1.6,55.4C1270.5,424.67,1269.65,431.78,1270.14,440Zm-755-11.87c-.28,14.83.25,29.58,3.06,44.2a365,365,0,0,0,19.17,65.38c6,15.18,13.65,29.6,21.83,43.71a331.12,331.12,0,0,0,30,44c8.11,9.91,16.85,19.24,25.37,28.76,11.52,12.89,22.65,26.27,35.29,38,22.14,20.52,44.7,40.59,69.73,57.78,19.86,13.63,39.32,27.81,60.15,40,8.17,4.77,8.17,4.77,14.05-2.28.53-.63,1.16-1.19,1.75-1.78,14.69-14.7,29.31-29.4,46.34-41.6,14.25-10.21,28.63-20.13,44-28.53a276.72,276.72,0,0,1,28.32-13.87c10-4,19.84-8.36,30.25-11.29,8.44-2.38,16.66-5.63,25.18-7.61,9.65-2.24,19.34-4.44,29.27-5.55,3.76-.42,7.77.1,11.27-1.12,8.7-3,17.91-2.59,26.69-3.1,20.86-1.2,41.79-.62,62.64,3,10.41,1.81,21,2.44,31.36,5.24,4.44,1.2,7.71-.36,9.8-5.21,4.8-11.13,10.3-22,15.4-33,10.54-22.74,22.13-45,28.77-69.42,4.59-16.86,12.59-32.57,17.09-49.47,2.18-8.19,4.22-16.41,6.76-24.5,3.49-11.09,6.25-22.37,8.8-33.72,3.12-13.82,4.64-27.81,5.62-41.87.67-9.61,1.09-19.26,1-28.89-.08-7.78-1.64-15.55-1.56-23.32a224.14,224.14,0,0,0-3.48-43.66c-6.17-32.61-15.22-64.37-32-93.37-7.08-12.21-15.29-23.71-23-35.5-9.73-14.81-21.45-28-33.91-40.39-8.93-8.91-18.59-17.12-27.73-25.85a170,170,0,0,0-14.2-11.73,282.06,282.06,0,0,0-61.85-36C1010.1,78.56,994.07,71.1,977,66.55,949,59.08,920.88,52,891.82,49.18c-22-2.17-44-3.58-66.12-1.87a333.13,333.13,0,0,0-56.4,9.09c-25.69,6.51-50.71,14.81-74.74,26-21.89,10.2-39.17,26.6-57,42.29-12.4,10.91-23.08,23.43-34.33,35.43a203.65,203.65,0,0,0-20.64,26.19,253.53,253.53,0,0,0-26.5,51.27c-10.73,28.28-21.53,56.51-28.84,85.93C518.72,357.86,515.31,392.8,515.14,428.1ZM758.5,1880.52c21.31.17,39.49.51,57.46-2.06,20.19-2.89,40.26-6.62,59.84-12.57,19-5.78,36.94-14.19,54.83-22.62a220.93,220.93,0,0,0,47.22-29.57c9.6-8,18.6-16.59,28-24.76,12.46-10.81,24.49-22,34.34-35.29a411.64,411.64,0,0,0,50.24-88.12,403.4,403.4,0,0,0,19.42-58.59c4.26-17.43,7.45-35,10.46-52.7,3.08-18,5.52-36.08,6-54.35a308.44,308.44,0,0,0-1.8-42.31c-2.26-20.29-5.15-40.48-9.28-60.44a520.53,520.53,0,0,0-27.86-92.42c-1.22-3-2.64-4.76-6.14-4.44-8.56.8-17.2,1-25.7,2.2-13.93,2-28,1.78-41.77.51-13-1.21-26.28-.91-39.08-4.47-5-1.39-10.31-1.59-15.38-2.76-9-2.08-17.91-4.94-26.89-7.11-13.28-3.21-25.62-8.7-38.19-13.62a164.16,164.16,0,0,1-25.07-12.59c-10.08-6.11-20.23-12.06-29.94-18.89a319.36,319.36,0,0,1-68.91-66.16c-5.74-7.39-5.72-6.84-13.34-1.92-16.64,10.75-31.77,23.49-47.48,35.44-21.8,16.58-42.16,35-64.62,50.74-23.3,16.34-45.43,34-65.65,54.18-13.82,13.77-26,28.93-38.44,43.82-7,8.37-14.56,16.29-19.89,26.09-8.44,15.52-16,31.45-23.44,47.44-6,13-12.35,25.83-17.06,39.35-6.84,19.65-11.19,39.89-14.45,60.45a500.5,500.5,0,0,0-5.59,58.42c-.88,22.18,1.66,44.15,6.13,65.82,3,14.43,5.66,29,11.53,42.7a348.24,348.24,0,0,0,26.35,49.69c7.14,11.2,14.61,22.25,23.66,32C546,1801,565.41,1818.5,588,1832.41a347,347,0,0,0,89.31,39A259.2,259.2,0,0,0,758.5,1880.52Zm767.4-852.66c-7.47,0-15-.32-22.42.07-12.43.63-24.85,1.06-37.28,2.18-17.36,1.57-34.88,1.29-52.29,2.38-12.56.79-25.07,2.48-37.6,3.85-4,.44-6.25,3.59-6.77,6.87a177.53,177.53,0,0,1-6,24.18,275.37,275.37,0,0,1-23.22,55.41c-3.46,6.14-6.1,12.85-10.25,18.46-5.92,8-10.83,16.65-17.11,24.47-6.77,8.44-13.29,17.13-20.64,25.06a343.94,343.94,0,0,1-49.38,44.33c-8.59,6.26-17.57,12-26.51,17.77s-18.66,10.26-28.24,14.9c-10.73,5.2-21.82,9.6-32.89,14.06-11.62,4.66-15.38,1.49-6.93,16.16.33.58.59,1.19.9,1.78,7.45,14,11.56,29.36,18.1,43.78,14.31,31.56,29.52,62.54,48.93,91.34,5.94,8.81,11.45,17.91,17.43,26.7,7.77,11.43,17,21.64,26.46,31.73,16.25,17.34,31.87,35.27,48.08,52.65,10,10.7,21.1,20.28,31.91,30.15,13.38,12.23,27.3,23.74,42.62,33.53,33.13,21.17,69.58,34.58,106.9,45.95,16.4,5,33.24,7.53,50.33,9.15,16.19,1.54,32.29,3.71,48.61,3.88,9.17.1,18.25-1.23,27.4-1.06,7.21.14,14.25-1.26,21.21-2.66,19.75-4,38.75-10.22,57.49-17.8,30.24-12.24,56.12-30.73,79.92-52.5a228.21,228.21,0,0,0,34.84-40.88c16.8-24.79,33-49.76,45.8-77a349.28,349.28,0,0,0,23.06-63.64c3.66-14.56,4.66-29.46,6.13-44.32a234.58,234.58,0,0,0-16-111.88,599.34,599.34,0,0,0-28.75-62.41c-12.44-23.45-29.49-43.71-47.24-63.33-20.07-22.19-44.23-39.16-69.63-54.56-14.87-9-31-15.36-47-21.77-13.72-5.49-27.36-11.29-41.86-14.54-17.5-3.92-35.22-6.27-53-8.23C1562.68,1030.1,1544.39,1028,1525.9,1027.86Zm-80.75-47.25c4.6-.19,12.38-.07,20.21-.79,18.34-1.7,36.56-4.39,54.82-6.63,24.24-3,47.22-11.93,71.22-16.58,16-3.1,31.8-8.39,47.22-14.21,10.57-4,22-5.46,32.08-10.81,25.38-13.53,50.21-28,73.55-44.91,20.45-14.82,40.59-30,58.93-47.46a348.78,348.78,0,0,0,51.11-60.38c9.25-14,19.48-27.36,27.08-42.41,11.53-22.84,20.05-46.66,24.28-72,2.47-14.72,5.71-29.34,6.56-44.26,1.45-25.43-3.19-50.32-8-75.1a226.87,226.87,0,0,0-34.75-84.25,518,518,0,0,0-34.29-45.22c-18.52-21.85-39.88-40.2-65.85-52.42a489.71,489.71,0,0,0-52.62-21.47c-21.22-7.11-43-13-65.38-15.12-13-1.26-25.9-4.24-39.07-4.13-9.65.08-19.27,0-28.92.82a359.54,359.54,0,0,0-37.48,4.82c-26.5,5.07-52.45,12-77.42,22.43-12.29,5.1-24.75,9.92-36.46,16.22-22.54,12.15-44.27,25.58-64.53,41.41A277,277,0,0,0,1328,445.42c-13.23,15.35-25.06,31.8-36.79,48.32C1275.4,516,1260.84,539,1249,563.65a698.77,698.77,0,0,0-33.77,84.72c-5.32,16.24-10.42,32.6-14.36,49.28-1,4.19.46,6.57,3.84,8.41,14.35,7.79,28.63,15.56,42.14,24.91,14.27,9.86,27.33,21,40.32,32.35,5.7,5,10.5,10.92,15.41,16.76,7.11,8.44,13.91,17.06,20.6,25.82,9.71,12.72,16.95,26.9,24.21,41,6.78,13.17,11.64,27.21,16.31,41.32a219.06,219.06,0,0,1,9,36.32c1.66,11.14,3.81,22.38,3.55,33.79-.11,4.83-.13,9.67,0,14.5.11,3.29,1.41,5.88,5.34,5.73C1401.78,977.82,1421.8,981.13,1445.15,980.61ZM48.2,941.7c.17,11.44,0,21.87,1.58,32.32,2.46,16.41,5.09,32.77,8.54,49,4.42,20.83,9.07,41.57,19,60.7,7.29,14,16.63,26.84,24.46,40.57a253.94,253.94,0,0,0,37.79,51.2c8.7,9,18.73,16.47,27.82,25,17.54,16.38,38.24,27.61,59.71,37.37,27,12.25,55.15,21.08,84,28,25.35,6.07,50.75,10.39,76.82,9.62,13.09-.38,26.15-2.41,39.23-2.6a322.14,322.14,0,0,0,51.44-5.39c34.91-6.16,68.35-17.31,100.5-31.94,33.21-15.1,64.81-33.07,93.5-55.94,20.64-16.45,41.69-32.38,62.37-48.8,4.57-3.63,4.22-7.28,2.15-11.26a173.55,173.55,0,0,1-14.29-38.38c-1.52-6.14-3.83-12-4.56-18.46a196.12,196.12,0,0,0-3.52-20.77,112,112,0,0,1-2.71-21.68c-.46-17.8-2-35.7,1.1-53.6,1.43-8.11,2.29-16.38,3.78-24.56,1.81-10,4.3-19.86,7-29.5,4.81-16.89,10.73-33.56,19.13-49.17,3.1-5.77,5.34-12.15,9.18-17.35,6.75-9.13,6.91-11.53-2.8-17.45-8.79-5.36-18-10.09-26.38-16.08-25.39-18.14-50.5-36.68-76.06-54.59-18.49-13-36.56-26.66-57-36.65-17.91-8.77-35.47-18.24-54.49-24.66a585.76,585.76,0,0,0-81.94-21c-14-2.57-28.09-5.43-42.34-5.91-22.6-.76-45.22-.54-67.7,2.7a541.11,541.11,0,0,0-78.15,17.52c-26.45,7.91-51.35,19.45-75.2,33.18-25.44,14.64-49.26,31.55-69.76,52.76-7.62,7.88-15.32,15.76-22.23,24.26-13.68,16.82-25.71,34.83-33.93,55A211.93,211.93,0,0,0,48.2,941.7Zm717.88,57a159.6,159.6,0,0,0,3.44,45.75c1.65,7.75,4.08,15.47,6.27,23.15A234,234,0,0,0,791,1106.79a187.22,187.22,0,0,0,12,21.42c7.29,10.94,14.71,21.82,23.83,31.25,13.65,14.12,27.27,28.24,43.81,39.34,9.94,6.67,20,13,30.48,18.71a251.2,251.2,0,0,0,59.25,22.75c6.75,1.69,13.61,3.08,20.41,4.57,4.57,1,9.08,1.2,13.61,1.82,6.95.95,13.91,2.82,20.84,2.72,14.86-.22,29.68,1,44.63-1.28,9.8-1.5,20.1-1.43,29.67-3.95,10.66-2.83,21.53-4.91,32.06-8.34,11.49-3.74,22.83-7.9,33.88-12.73,15-6.58,29.16-14.9,43-23.84a249.69,249.69,0,0,0,35.25-27.47c14.69-13.83,28.76-28.29,40.09-45.12,5.74-8.53,11.59-17.05,16.5-26.06,7.38-13.53,14-27.4,18.74-42.21,4-12.39,7.54-24.8,10.29-37.52.9-4.14.1-8.46,1.41-12.23,3.19-9.24.67-18.93,3.21-28.27,2.24-8.24-1.92-16.61-1.61-25,.25-6.82-2-13.23-2.83-19.87-1-8.13-4.15-15.73-5.71-23.65-2.45-12.38-7.81-23.58-12.77-34.9-4.78-10.94-10.89-21.24-17.25-31.43a241.49,241.49,0,0,0-24-31.67c-10.26-11.64-22-21.77-34.31-31.41a230.6,230.6,0,0,0-30.64-20.25c-15-8.34-30.37-16-46.82-21.29-8-2.56-16-5.61-24.29-7.13-10.25-1.88-20.46-4.1-30.77-5.74-8.82-1.4-17.68-1.57-26.44-2.32a153.72,153.72,0,0,0-32.27.68c-9.23,1.15-18.44,2-27.62,3.79-10.55,2-21,4.27-31.4,7a269.19,269.19,0,0,0-40.93,14.58,290.62,290.62,0,0,0-59,34.91,328.82,328.82,0,0,0-31,26.64,259.06,259.06,0,0,0-20.19,22.94c-5.93,7.45-11.15,15.3-16.5,23.12-3.9,5.7-7,11.87-10.76,17.57-5.88,8.89-9.28,18.84-13.62,28.35a147.38,147.38,0,0,0-8.33,24.42c-1.29,5-3,10-4.17,15.1S770.22,955,769,959.88a81.59,81.59,0,0,0-2.89,20.33C766.06,986.37,766.08,992.54,766.08,998.71Z"/><path class="cls-2" d="M515.14,428.1c.17-35.3,3.58-70.24,12.1-104.59,7.31-29.42,18.11-57.65,28.84-85.93a253.53,253.53,0,0,1,26.5-51.27,203.65,203.65,0,0,1,20.64-26.19c11.25-12,21.93-24.52,34.33-35.43,17.84-15.69,35.12-32.09,57-42.29,24-11.19,49.05-19.49,74.74-26a333.13,333.13,0,0,1,56.4-9.09c22.15-1.71,44.08-.3,66.12,1.87C920.88,52,949,59.08,977,66.55c17,4.55,33.07,12,49.3,18.88a282.06,282.06,0,0,1,61.85,36,170,170,0,0,1,14.2,11.73c9.14,8.73,18.8,16.94,27.73,25.85,12.46,12.42,24.18,25.58,33.91,40.39,7.74,11.79,16,23.29,23,35.5,16.83,29,25.88,60.76,32,93.37a224.14,224.14,0,0,1,3.48,43.66c-.08,7.77,1.48,15.54,1.56,23.32.09,9.63-.33,19.28-1,28.89-1,14.06-2.5,28.05-5.62,41.87-2.55,11.35-5.31,22.63-8.8,33.72-2.54,8.09-4.58,16.31-6.76,24.5-4.5,16.9-12.5,32.61-17.09,49.47-6.64,24.38-18.23,46.68-28.77,69.42-5.1,11-10.6,21.85-15.4,33-2.09,4.85-5.36,6.41-9.8,5.21-10.32-2.8-21-3.43-31.36-5.24-20.85-3.61-41.78-4.19-62.64-3-8.78.51-18,.08-26.69,3.1-3.5,1.22-7.51.7-11.27,1.12-9.93,1.11-19.62,3.31-29.27,5.55-8.52,2-16.74,5.23-25.18,7.61-10.41,2.93-20.29,7.25-30.25,11.29a276.72,276.72,0,0,0-28.32,13.87c-15.36,8.4-29.74,18.32-44,28.53-17,12.2-31.65,26.9-46.34,41.6-.59.59-1.22,1.15-1.75,1.78-5.88,7.05-5.88,7.05-14.05,2.28-20.83-12.15-40.29-26.33-60.15-40-25-17.19-47.59-37.26-69.73-57.78-12.64-11.72-23.77-25.1-35.29-38-8.52-9.52-17.26-18.85-25.37-28.76a331.12,331.12,0,0,1-30-44c-8.18-14.11-15.84-28.53-21.83-43.71A365,365,0,0,1,518.2,472.3C515.39,457.68,514.86,442.93,515.14,428.1Z"/><path class="cls-2" d="M758.5,1880.52a259.2,259.2,0,0,1-81.21-9.09,347,347,0,0,1-89.31-39c-22.57-13.91-42-31.44-59.94-50.78-9-9.77-16.52-20.82-23.66-32A348.24,348.24,0,0,1,478,1699.92c-5.87-13.65-8.55-28.27-11.53-42.7-4.47-21.67-7-43.64-6.13-65.82A500.5,500.5,0,0,1,466,1533c3.26-20.56,7.61-40.8,14.45-60.45,4.71-13.52,11-26.39,17.06-39.35,7.44-16,15-31.92,23.44-47.44,5.33-9.8,12.86-17.72,19.89-26.09,12.49-14.89,24.62-30.05,38.44-43.82,20.22-20.14,42.35-37.84,65.65-54.18,22.46-15.76,42.82-34.16,64.62-50.74,15.71-12,30.84-24.69,47.48-35.44,7.62-4.92,7.6-5.47,13.34,1.92a319.36,319.36,0,0,0,68.91,66.16c9.71,6.83,19.86,12.78,29.94,18.89A164.16,164.16,0,0,0,894.25,1275c12.57,4.92,24.91,10.41,38.19,13.62,9,2.17,17.86,5,26.89,7.11,5.07,1.17,10.38,1.37,15.38,2.76,12.8,3.56,26.08,3.26,39.08,4.47,13.77,1.27,27.84,1.47,41.77-.51,8.5-1.21,17.14-1.4,25.7-2.2,3.5-.32,4.92,1.45,6.14,4.44a520.53,520.53,0,0,1,27.86,92.42c4.13,20,7,40.15,9.28,60.44a308.44,308.44,0,0,1,1.8,42.31c-.5,18.27-2.94,36.36-6,54.35-3,17.66-6.2,35.27-10.46,52.7a403.4,403.4,0,0,1-19.42,58.59,411.64,411.64,0,0,1-50.24,88.12c-9.85,13.26-21.88,24.48-34.34,35.29-9.41,8.17-18.41,16.79-28,24.76a220.93,220.93,0,0,1-47.22,29.57c-17.89,8.43-35.82,16.84-54.83,22.62-19.58,5.95-39.65,9.68-59.84,12.57C798,1881,779.81,1880.69,758.5,1880.52Z"/><path class="cls-2" d="M1525.9,1027.86c18.49.09,36.78,2.24,55.13,4.26,17.82,2,35.54,4.31,53,8.23,14.5,3.25,28.14,9.05,41.86,14.54,16,6.41,32.14,12.75,47,21.77,25.4,15.4,49.56,32.37,69.63,54.56,17.75,19.62,34.8,39.88,47.24,63.33a599.34,599.34,0,0,1,28.75,62.41,234.58,234.58,0,0,1,16,111.88c-1.47,14.86-2.47,29.76-6.13,44.32a349.28,349.28,0,0,1-23.06,63.64c-12.78,27.19-29,52.16-45.8,77a228.21,228.21,0,0,1-34.84,40.88c-23.8,21.77-49.68,40.26-79.92,52.5-18.74,7.58-37.74,13.85-57.49,17.8-7,1.4-14,2.8-21.21,2.66-9.15-.17-18.23,1.16-27.4,1.06-16.32-.17-32.42-2.34-48.61-3.88-17.09-1.62-33.93-4.15-50.33-9.15-37.32-11.37-73.77-24.78-106.9-45.95-15.32-9.79-29.24-21.3-42.62-33.53-10.81-9.87-21.93-19.45-31.91-30.15-16.21-17.38-31.83-35.31-48.08-52.65-9.45-10.09-18.69-20.3-26.46-31.73-6-8.79-11.49-17.89-17.43-26.7-19.41-28.8-34.62-59.78-48.93-91.34-6.54-14.42-10.65-29.78-18.1-43.78-.31-.59-.57-1.2-.9-1.78-8.45-14.67-4.69-11.5,6.93-16.16,11.07-4.46,22.16-8.86,32.89-14.06,9.58-4.64,19.31-9.18,28.24-14.9s17.92-11.51,26.51-17.77a343.94,343.94,0,0,0,49.38-44.33c7.35-7.93,13.87-16.62,20.64-25.06,6.28-7.82,11.19-16.47,17.11-24.47,4.15-5.61,6.79-12.32,10.25-18.46a275.37,275.37,0,0,0,23.22-55.41,177.53,177.53,0,0,0,6-24.18c.52-3.28,2.74-6.43,6.77-6.87,12.53-1.37,25-3.06,37.6-3.85,17.41-1.09,34.93-.81,52.29-2.38,12.43-1.12,24.85-1.55,37.28-2.18C1510.94,1027.54,1518.43,1027.86,1525.9,1027.86Z"/><path class="cls-2" d="M1445.15,980.61c-23.35.52-43.37-2.79-63.52-2.06-3.93.15-5.23-2.44-5.34-5.73-.17-4.83-.15-9.67,0-14.5.26-11.41-1.89-22.65-3.55-33.79a219.06,219.06,0,0,0-9-36.32c-4.67-14.11-9.53-28.15-16.31-41.32-7.26-14.09-14.5-28.27-24.21-41-6.69-8.76-13.49-17.38-20.6-25.82-4.91-5.84-9.71-11.79-15.41-16.76-13-11.31-26.05-22.49-40.32-32.35-13.51-9.35-27.79-17.12-42.14-24.91-3.38-1.84-4.83-4.22-3.84-8.41,3.94-16.68,9-33,14.36-49.28A698.77,698.77,0,0,1,1249,563.65c11.85-24.69,26.41-47.64,42.22-69.91,11.73-16.52,23.56-33,36.79-48.32a277,277,0,0,1,39.42-37.26c20.26-15.83,42-29.26,64.53-41.41,11.71-6.3,24.17-11.12,36.46-16.22,25-10.38,50.92-17.36,77.42-22.43a359.54,359.54,0,0,1,37.48-4.82c9.65-.8,19.27-.74,28.92-.82,13.17-.11,26,2.87,39.07,4.13,22.43,2.16,44.16,8,65.38,15.12a489.71,489.71,0,0,1,52.62,21.47c26,12.22,47.33,30.57,65.85,52.42a518,518,0,0,1,34.29,45.22,226.87,226.87,0,0,1,34.75,84.25c4.83,24.78,9.47,49.67,8,75.1-.85,14.92-4.09,29.54-6.56,44.26-4.23,25.34-12.75,49.16-24.28,72-7.6,15.05-17.83,28.4-27.08,42.41a348.78,348.78,0,0,1-51.11,60.38c-18.34,17.45-38.48,32.64-58.93,47.46-23.34,16.91-48.17,31.38-73.55,44.91-10,5.35-21.51,6.83-32.08,10.81-15.42,5.82-31.19,11.11-47.22,14.21-24,4.65-47,13.62-71.22,16.58-18.26,2.24-36.48,4.93-54.82,6.63C1457.53,980.54,1449.75,980.42,1445.15,980.61Z"/><path class="cls-2" d="M48.2,941.7a211.93,211.93,0,0,1,16.14-86.6c8.22-20.16,20.25-38.17,33.93-55,6.91-8.5,14.61-16.38,22.23-24.26,20.5-21.21,44.32-38.12,69.76-52.76,23.85-13.73,48.75-25.27,75.2-33.18a541.11,541.11,0,0,1,78.15-17.52c22.48-3.24,45.1-3.46,67.7-2.7,14.25.48,28.29,3.34,42.34,5.91a585.76,585.76,0,0,1,81.94,21c19,6.42,36.58,15.89,54.49,24.66,20.42,10,38.49,23.69,57,36.65,25.56,17.91,50.67,36.45,76.06,54.59,8.39,6,17.59,10.72,26.38,16.08,9.71,5.92,9.55,8.32,2.8,17.45-3.84,5.2-6.08,11.58-9.18,17.35C734.72,879,728.8,895.66,724,912.55c-2.74,9.64-5.23,19.52-7,29.5-1.49,8.18-2.35,16.45-3.78,24.56-3.13,17.9-1.56,35.8-1.1,53.6a112,112,0,0,0,2.71,21.68,196.12,196.12,0,0,1,3.52,20.77c.73,6.43,3,12.32,4.56,18.46a173.55,173.55,0,0,0,14.29,38.38c2.07,4,2.42,7.63-2.15,11.26-20.68,16.42-41.73,32.35-62.37,48.8-28.69,22.87-60.29,40.84-93.5,55.94-32.15,14.63-65.59,25.78-100.5,31.94a322.14,322.14,0,0,1-51.44,5.39c-13.08.19-26.14,2.22-39.23,2.6-26.07.77-51.47-3.55-76.82-9.62-28.9-6.91-57.08-15.74-84-28-21.47-9.76-42.17-21-59.71-37.37-9.09-8.49-19.12-16-27.82-25a253.94,253.94,0,0,1-37.79-51.2c-7.83-13.73-17.17-26.52-24.46-40.57-9.92-19.13-14.57-39.87-19-60.7-3.45-16.23-6.08-32.59-8.54-49C48.21,963.57,48.37,953.14,48.2,941.7Z"/><path class="cls-3" d="M766.08,998.71c0-6.17,0-12.34,0-18.5A81.59,81.59,0,0,1,769,959.88c1.25-4.84.68-10,1.79-15.09s2.88-10.06,4.17-15.1a147.38,147.38,0,0,1,8.33-24.42c4.34-9.51,7.74-19.46,13.62-28.35,3.76-5.7,6.86-11.87,10.76-17.57,5.35-7.82,10.57-15.67,16.5-23.12a259.06,259.06,0,0,1,20.19-22.94,328.82,328.82,0,0,1,31-26.64,290.62,290.62,0,0,1,59-34.91,269.19,269.19,0,0,1,40.93-14.58c10.39-2.75,20.85-5,31.4-7,9.18-1.76,18.39-2.64,27.62-3.79a153.72,153.72,0,0,1,32.27-.68c8.76.75,17.62.92,26.44,2.32,10.31,1.64,20.52,3.86,30.77,5.74,8.26,1.52,16.25,4.57,24.29,7.13,16.45,5.24,31.8,12.95,46.82,21.29a230.6,230.6,0,0,1,30.64,20.25c12.26,9.64,24,19.77,34.31,31.41a241.49,241.49,0,0,1,24,31.67c6.36,10.19,12.47,20.49,17.25,31.43,5,11.32,10.32,22.52,12.77,34.9,1.56,7.92,4.72,15.52,5.71,23.65.8,6.64,3.08,13,2.83,19.87-.31,8.41,3.85,16.78,1.61,25-2.54,9.34,0,19-3.21,28.27-1.31,3.77-.51,8.09-1.41,12.23-2.75,12.72-6.32,25.13-10.29,37.52-4.74,14.81-11.36,28.68-18.74,42.21-4.91,9-10.76,17.53-16.5,26.06-11.33,16.83-25.4,31.29-40.09,45.12a249.69,249.69,0,0,1-35.25,27.47c-13.79,8.94-27.9,17.26-43,23.84-11,4.83-22.39,9-33.88,12.73-10.53,3.43-21.4,5.51-32.06,8.34-9.57,2.52-19.87,2.45-29.67,3.95-15,2.28-29.77,1.06-44.63,1.28-6.93.1-13.89-1.77-20.84-2.72-4.53-.62-9-.83-13.61-1.82-6.8-1.49-13.66-2.88-20.41-4.57a251.2,251.2,0,0,1-59.25-22.75c-10.46-5.68-20.54-12-30.48-18.71-16.54-11.1-30.16-25.22-43.81-39.34-9.12-9.43-16.54-20.31-23.83-31.25a187.22,187.22,0,0,1-12-21.42,234,234,0,0,1-15.25-39.18c-2.19-7.68-4.62-15.4-6.27-23.15A159.6,159.6,0,0,1,766.08,998.71Z"/></g></g></svg>